<?xml version="1.0" encoding="UTF-8" standalone="no"?>
<!-- Created with Inkscape (http://www.inkscape.org/) -->

<svg
   xmlns:dc="http://purl.org/dc/elements/1.1/"
   xmlns:cc="http://creativecommons.org/ns#"
   xmlns:rdf="http://www.w3.org/1999/02/22-rdf-syntax-ns#"
   xmlns:svg="http://www.w3.org/2000/svg"
   xmlns="http://www.w3.org/2000/svg"
   xmlns:xlink="http://www.w3.org/1999/xlink"
   xmlns:sodipodi="http://sodipodi.sourceforge.net/DTD/sodipodi-0.dtd"
   xmlns:inkscape="http://www.inkscape.org/namespaces/inkscape"
   width="512"
   height="512"
   viewBox="0 0 512.00001 512.00001"
   id="svg2"
   version="1.1"
   inkscape:version="0.91 r13725"
   sodipodi:docname="lxinitd.svg"
   inkscape:export-filename="/home/teknopaul/bzr_workspace/sites/htdocs-lxinitd.tp23.org/lxinitd.png"
   inkscape:export-xdpi="11.25"
   inkscape:export-ydpi="11.25">
  <defs
     id="defs4">
    <linearGradient
       inkscape:collect="always"
       id="linearGradient4272">
      <stop
         style="stop-color:#300a24;stop-opacity:1;"
         offset="0"
         id="stop4274" />
      <stop
         style="stop-color:#3c0c2d;stop-opacity:1"
         offset="1"
         id="stop4276" />
    </linearGradient>
    <linearGradient
       inkscape:collect="always"
       id="linearGradient4264">
      <stop
         style="stop-color:#493443;stop-opacity:1;"
         offset="0"
         id="stop4266" />
      <stop
         style="stop-color:#493443;stop-opacity:0.8206278"
         offset="1"
         id="stop4268" />
    </linearGradient>
    <linearGradient
       gradientTransform="matrix(0,-1,1,0,-1035.0425,929.55515)"
       inkscape:collect="always"
       xlink:href="#linearGradient4272"
       id="linearGradient4278-3"
       x1="256.74466"
       y1="621.03973"
       x2="256.74466"
       y2="960.45093"
       gradientUnits="userSpaceOnUse" />
    <linearGradient
       gradientTransform="matrix(0,-1,1,0,-1035.0425,929.55515)"
       inkscape:collect="always"
       xlink:href="#linearGradient4264"
       id="linearGradient4270-8"
       x1="135.63652"
       y1="622.83972"
       x2="130.77722"
       y2="957.2002"
       gradientUnits="userSpaceOnUse" />
    <filter
       inkscape:collect="always"
       style="color-interpolation-filters:sRGB"
       id="filter4225-1"
       x="-0.028975626"
       width="1.0579513"
       y="-0.020482751"
       height="1.0409656">
      <feGaussianBlur
         inkscape:collect="always"
         stdDeviation="0.49500029"
         id="feGaussianBlur4227-5" />
    </filter>
  </defs>
  <sodipodi:namedview
     id="base"
     pagecolor="#ffffff"
     bordercolor="#666666"
     borderopacity="1.0"
     inkscape:pageopacity="0.0"
     inkscape:pageshadow="2"
     inkscape:zoom="0.98994949"
     inkscape:cx="-60.748336"
     inkscape:cy="274.42305"
     inkscape:document-units="px"
     inkscape:current-layer="layer1"
     showgrid="false"
     inkscape:snap-bbox="true"
     inkscape:bbox-paths="true"
     inkscape:snap-bbox-edge-midpoints="true"
     inkscape:bbox-nodes="true"
     inkscape:snap-bbox-midpoints="true"
     inkscape:object-paths="true"
     inkscape:snap-intersection-paths="true"
     inkscape:object-nodes="true"
     inkscape:snap-smooth-nodes="true"
     inkscape:snap-midpoints="true"
     inkscape:snap-object-midpoints="true"
     inkscape:snap-center="true"
     inkscape:snap-global="false"
     inkscape:window-width="1920"
     inkscape:window-height="1056"
     inkscape:window-x="0"
     inkscape:window-y="1104"
     inkscape:window-maximized="1"
     units="px"
     showguides="false">
    <inkscape:grid
       type="xygrid"
       id="grid4167" />
  </sodipodi:namedview>
  <metadata
     id="metadata7">
    <rdf:RDF>
      <cc:Work
         rdf:about="">
        <dc:format>image/svg+xml</dc:format>
        <dc:type
           rdf:resource="http://purl.org/dc/dcmitype/StillImage" />
        <dc:title />
      </cc:Work>
    </rdf:RDF>
  </metadata>
  <g
     inkscape:label="Layer 1"
     inkscape:groupmode="layer"
     id="layer1"
     transform="translate(0,-540.36216)">
    <g
       id="g4335"
       transform="translate(496.41632,116.16754)">
      <path
         transform="matrix(8.3015167,0,0,8.3015167,-1823.5936,-3107.7888)"
         sodipodi:nodetypes="ccccccccccccccccccccccccccsscc"
         inkscape:connector-curvature="0"
         id="path4196-6-3"
         d="m 175.70159,427.10879 c -0.12989,0.002 -0.25387,0.0546 -0.34571,0.14648 l -5,5 c -0.19518,0.19526 -0.19518,0.51177 0,0.70703 l 14.64649,14.64649 -14.64649,14.64648 c -0.19518,0.19526 -0.19518,0.51177 0,0.70703 l 0.35352,0.35352 0,13.79297 c -0.27613,3e-5 -0.49997,0.22387 -0.5,0.5 l 0,7 c 3e-5,0.27613 0.22387,0.49997 0.5,0.5 l 40,0 c 0.27613,-3e-5 0.49997,-0.22387 0.5,-0.5 l 0,-22 c -2e-5,-0.1326 -0.0527,-0.25976 -0.14648,-0.35352 l -14.64649,-14.64648 14.64649,-14.64649 c 0.19518,-0.19526 0.19518,-0.51177 0,-0.70703 l -5,-5 c -0.19527,-0.19519 -0.51177,-0.19519 -0.70704,0 l -14.64648,14.64649 -14.64648,-14.64649 c -0.0957,-0.0957 -0.22603,-0.14855 -0.36133,-0.14648 z m 15.0039,18.1875 c 1.28245,-0.003 2.31285,1.02419 2.31641,2.30664 l 0,0.006 c 0,1.28244 -1.02811,2.31161 -2.31055,2.3125 -1.2818,8.9e-4 -2.31178,-1.02484 -2.31445,-2.30664 -0.003,-1.28309 1.02551,-2.31569 2.30859,-2.31836 z"
         style="opacity:0.59600004;fill:#1a1218;fill-opacity:1;fill-rule:evenodd;stroke:none;stroke-width:1px;stroke-linecap:butt;stroke-linejoin:miter;stroke-opacity:1;filter:url(#filter4225-1)" />
      <path
         sodipodi:nodetypes="ccccccccc"
         inkscape:connector-curvature="0"
         id="path4196-5"
         d="m -245.30731,638.16367 -124.52278,91.30945 -41.50757,0 0,182.63336 58.11065,0 0,-24.90451 257.347005,0 0,-141.12582 z"
         style="opacity:0.82099998;fill:url(#linearGradient4270-8);fill-opacity:1;fill-rule:evenodd;stroke:none;stroke-width:1px;stroke-linecap:butt;stroke-linejoin:miter;stroke-opacity:1" />
      <path
         id="path4169-1"
         d="m -369.83009,438.92004 -41.50757,41.50758 124.52275,124.52275 -124.52275,124.52275 41.50757,41.50759 124.52278,-124.52275 107.9197,107.91972 0,99.61821 -273.95005,0 0,58.11059 332.060655,0 0,-182.63336 L -203.79971,604.95037 -79.277005,480.42762 -120.78461,438.92004 -245.30731,563.44279 -369.83009,438.92004 Z m 124.47408,142.68231 a 23.347951,23.347984 0 0 1 23.3967,23.28319 l 0,0.0664 a 23.347951,23.347984 0 0 1 -23.3318,23.34801 23.347951,23.347984 0 0 1 -23.3642,-23.29937 23.347951,23.347984 0 0 1 23.2993,-23.39666 z"
         style="fill:url(#linearGradient4278-3);fill-opacity:1;fill-rule:evenodd;stroke:#220a1d;stroke-width:8.30151653px;stroke-linecap:round;stroke-linejoin:round;stroke-opacity:1"
         inkscape:connector-curvature="0" />
    </g>
  </g>
</svg>
