<?xml version="1.0" encoding="UTF-8" standalone="no"?>
<!-- Created with Inkscape (http://www.inkscape.org/) -->

<svg
   xmlns:dc="http://purl.org/dc/elements/1.1/"
   xmlns:cc="http://creativecommons.org/ns#"
   xmlns:rdf="http://www.w3.org/1999/02/22-rdf-syntax-ns#"
   xmlns:svg="http://www.w3.org/2000/svg"
   xmlns="http://www.w3.org/2000/svg"
   xmlns:sodipodi="http://sodipodi.sourceforge.net/DTD/sodipodi-0.dtd"
   xmlns:inkscape="http://www.inkscape.org/namespaces/inkscape"
   height="172.4"
   width="512"
   version="1.1"
   viewBox="0 0 512.00001 172.40142"
   id="svg4228"
   inkscape:version="0.91 r13725"
   sodipodi:docname="lxinitd-text.svg"
   inkscape:export-filename="/home/teknopaul/bzr_workspace/lxinitd/doc/lxinitd-text-small.png"
   inkscape:export-xdpi="22.447796"
   inkscape:export-ydpi="22.447796">
  <sodipodi:namedview
     pagecolor="#ffffff"
     bordercolor="#666666"
     borderopacity="1"
     objecttolerance="10"
     gridtolerance="10"
     guidetolerance="10"
     inkscape:pageopacity="0"
     inkscape:pageshadow="2"
     inkscape:window-width="1920"
     inkscape:window-height="1056"
     id="namedview4271"
     showgrid="false"
     inkscape:zoom="2.5214844"
     inkscape:cx="159.4299"
     inkscape:cy="86.199997"
     inkscape:window-x="0"
     inkscape:window-y="1104"
     inkscape:window-maximized="1"
     inkscape:current-layer="svg4228" />
  <defs
     id="defs4230">
    <filter
       id="filter5120"
       style="color-interpolation-filters:sRGB"
       height="1.1119"
       width="1.0306"
       y="-.055932"
       x="-.015278">
      <feGaussianBlur
         stdDeviation="4.5171218"
         id="feGaussianBlur4233" />
    </filter>
  </defs>
  <metadata
     id="metadata4235">
    <rdf:RDF>
      <cc:Work
         rdf:about="">
        <dc:format>image/svg+xml</dc:format>
        <dc:type
           rdf:resource="http://purl.org/dc/dcmitype/StillImage" />
        <dc:title />
      </cc:Work>
    </rdf:RDF>
  </metadata>
  <g
     transform="translate(0 -879.96)"
     id="g4237">
    <g
       transform="matrix(.67519 0 0 .67519 -113.35 339.2)"
       id="g4239">
      <path
         d="m233.26 1026.1q-11.531-0.2453-19.628-2.9442-7.8512-2.6988-12.758-7.3605-4.6617-4.6617-6.8698-11.041-1.9628-6.3791-1.9628-13.985 0-7.8512 1.7175-16.439 1.9628-8.8326 4.171-17.42l28.461-118.75 30.914-4.907q-7.6059 32.141-15.212 64.037-7.6059 31.65-15.457 63.791-1.2268 5.1524-2.6989 10.305-1.4721 4.907-1.4721 9.814 0 4.171 0 7.8512 0.24535 3.4349 1.9628 6.1338 1.9628 2.4535 5.6431 4.171 3.6803 1.7174 9.5687 2.2081l-6.3791 24.535z"
         id="path4241" />
      <path
         d="m305.71 895.29 20.364 43.182q9.3233-11.286 17.42-22.082 8.0966-10.795 14.721-21.1h30.669q-10.305 15.212-22.818 31.16-12.513 15.702-27.234 31.896 8.8326 16.929 16.193 33.122 7.3605 15.948 13.004 32.141h-29.933q-3.9256-11.532-9.078-23.063-4.907-11.531-10.059-21.836l-39.011 44.899h-32.386l58.639-65.754-31.65-62.564h31.16z"
         id="path4243" />
      <path
         d="m420.9 1023.6h-29.442l30.669-128.32h29.687l-30.914 128.32zm22.082-147.7q-6.6245 0-11.532-3.9256-4.907-3.9256-4.907-11.777 0-9.078 6.1338-14.966 6.3791-5.8884 14.476-5.8884 6.6245 0 11.531 4.171 5.1524 3.9256 5.1524 11.777 0 9.078-6.3791 14.966-6.3791 5.6431-14.476 5.6431z"
         id="path4245" />
      <path
         d="m481.51 900.69q9.814-2.9442 22.327-5.3977 12.758-2.6989 27.725-2.6989 22.572 0 33.122 11.041t10.55 29.687q0 5.1524-0.9814 11.041-0.73606 5.6431-1.9628 11.777l-16.193 67.471h-29.687l15.212-64.282q1.2268-5.3977 2.4535-11.041 1.2268-5.6431 1.4721-10.795 0.24535-8.5873-4.171-14.23-4.171-5.6431-16.684-5.6431-10.55 0-18.156 2.2082l-24.78 103.78h-29.687l29.442-122.92z"
         id="path4247" />
      <path
         d="m619.52 1023.6h-29.442l30.669-128.32h29.687l-30.914 128.32zm22.082-147.7q-6.6245 0-11.531-3.9256-4.907-3.9256-4.907-11.777 0-9.078 6.1338-14.966 6.3791-5.8884 14.476-5.8884 6.6245 0 11.531 4.171 5.1524 3.9256 5.1524 11.777 0 9.078-6.3791 14.966-6.3791 5.6431-14.476 5.6431z"
         id="path4249" />
      <path
         d="m688.26 861.44 30.914-4.907-9.3233 38.765h41.955l-5.8884 24.535h-41.955l-12.268 50.788q-1.2268 5.3977-1.7175 9.078-0.4907 3.4349-0.4907 6.3791t0.4907 5.8884q0.73606 2.6989 2.4535 4.907 1.9628 1.9628 5.3977 3.4349 3.6803 1.2267 9.814 1.2267 6.6245 0 12.758-1.7174 6.1338-1.7174 10.795-3.6803l2.2082 23.799q-5.6431 2.4535-14.23 4.6616-8.5873 2.2082-20.119 2.2082-21.1 0-30.178-9.078-9.078-9.3233-9.078-25.271 0-5.8884 0.73605-12.022 0.9814-6.3791 2.6989-13.494l25.026-105.5z"
         id="path4251" />
      <path
         d="m803.99 1027q-11.532 0-19.873-3.6802-8.3419-3.9256-13.74-10.55-5.1524-6.6245-7.6059-15.702-2.4535-9.078-2.4535-19.628 0-16.439 5.6431-31.65 5.8884-15.457 16.439-26.989 10.795-11.777 26.253-18.647 15.457-7.1152 35.085-7.1152 2.4535 0 5.8884 0.24535t7.6059 1.2268l13.494-56.431 30.914-4.907-33.613 139.11q-1.2268 5.6431-1.9628 11.531-0.49071 5.6431-0.49071 10.795 0 6.6245 1.2268 13.249 1.2268 6.6244 3.9256 13.74l-26.498 3.9256q-2.6989-5.1523-4.6617-12.513-6.1338 5.3978-14.966 9.8141-8.8326 4.1709-20.609 4.1709zm47.35-108.4q-4.6617-0.98141-11.286-0.98141-11.286 0-20.609 4.907-9.3233 4.6617-15.948 12.758-6.6245 7.8512-10.305 18.156-3.4349 10.305-3.4349 21.346 0 5.6431 0.9814 10.55 1.2268 4.907 3.6803 8.5873t6.3791 5.8884q4.171 2.2081 10.059 2.2081 7.8512 0 13.74-3.1895 6.1338-3.1896 11.531-8.8326 0.24535-5.1524 0.9814-10.795 0.98141-5.6431 2.2082-11.041l12.022-49.561z"
         id="path4253" />
      <g
         filter="url(#filter5120)"
         transform="translate(2 2)"
         id="g4255">
        <path
           d="m233.26 1026.1q-11.531-0.2453-19.628-2.9442-7.8512-2.6988-12.758-7.3605-4.6617-4.6617-6.8698-11.041-1.9628-6.3791-1.9628-13.985 0-7.8512 1.7175-16.439 1.9628-8.8326 4.171-17.42l28.461-118.75 30.914-4.907q-7.6059 32.141-15.212 64.037-7.6059 31.65-15.457 63.791-1.2268 5.1524-2.6989 10.305-1.4721 4.907-1.4721 9.814 0 4.171 0 7.8512 0.24535 3.4349 1.9628 6.1338 1.9628 2.4535 5.6431 4.171 3.6803 1.7174 9.5687 2.2081l-6.3791 24.535z"
           id="path4257" />
        <path
           d="m305.71 895.29 20.364 43.182q9.3233-11.286 17.42-22.082 8.0966-10.795 14.721-21.1h30.669q-10.305 15.212-22.818 31.16-12.513 15.702-27.234 31.896 8.8326 16.929 16.193 33.122 7.3605 15.948 13.004 32.141h-29.933q-3.9256-11.532-9.078-23.063-4.907-11.531-10.059-21.836l-39.011 44.899h-32.386l58.639-65.754-31.65-62.564h31.16z"
           id="path4259" />
        <path
           d="m420.9 1023.6h-29.442l30.669-128.32h29.687l-30.914 128.32zm22.082-147.7q-6.6245 0-11.532-3.9256-4.907-3.9256-4.907-11.777 0-9.078 6.1338-14.966 6.3791-5.8884 14.476-5.8884 6.6245 0 11.531 4.171 5.1524 3.9256 5.1524 11.777 0 9.078-6.3791 14.966-6.3791 5.6431-14.476 5.6431z"
           id="path4261" />
        <path
           d="m481.51 900.69q9.814-2.9442 22.327-5.3977 12.758-2.6989 27.725-2.6989 22.572 0 33.122 11.041t10.55 29.687q0 5.1524-0.9814 11.041-0.73606 5.6431-1.9628 11.777l-16.193 67.471h-29.687l15.212-64.282q1.2268-5.3977 2.4535-11.041 1.2268-5.6431 1.4721-10.795 0.24535-8.5873-4.171-14.23-4.171-5.6431-16.684-5.6431-10.55 0-18.156 2.2082l-24.78 103.78h-29.687l29.442-122.92z"
           id="path4263" />
        <path
           d="m619.52 1023.6h-29.442l30.669-128.32h29.687l-30.914 128.32zm22.082-147.7q-6.6245 0-11.531-3.9256-4.907-3.9256-4.907-11.777 0-9.078 6.1338-14.966 6.3791-5.8884 14.476-5.8884 6.6245 0 11.531 4.171 5.1524 3.9256 5.1524 11.777 0 9.078-6.3791 14.966-6.3791 5.6431-14.476 5.6431z"
           id="path4265" />
        <path
           d="m688.26 861.44 30.914-4.907-9.3233 38.765h41.955l-5.8884 24.535h-41.955l-12.268 50.788q-1.2268 5.3977-1.7175 9.078-0.4907 3.4349-0.4907 6.3791t0.4907 5.8884q0.73606 2.6989 2.4535 4.907 1.9628 1.9628 5.3977 3.4349 3.6803 1.2267 9.814 1.2267 6.6245 0 12.758-1.7174 6.1338-1.7174 10.795-3.6803l2.2082 23.799q-5.6431 2.4535-14.23 4.6616-8.5873 2.2082-20.119 2.2082-21.1 0-30.178-9.078-9.078-9.3233-9.078-25.271 0-5.8884 0.73605-12.022 0.9814-6.3791 2.6989-13.494l25.026-105.5z"
           id="path4267" />
        <path
           d="m803.99 1027q-11.532 0-19.873-3.6802-8.3419-3.9256-13.74-10.55-5.1524-6.6245-7.6059-15.702-2.4535-9.078-2.4535-19.628 0-16.439 5.6431-31.65 5.8884-15.457 16.439-26.989 10.795-11.777 26.253-18.647 15.457-7.1152 35.085-7.1152 2.4535 0 5.8884 0.24535t7.6059 1.2268l13.494-56.431 30.914-4.907-33.613 139.11q-1.2268 5.6431-1.9628 11.531-0.49071 5.6431-0.49071 10.795 0 6.6245 1.2268 13.249 1.2268 6.6244 3.9256 13.74l-26.498 3.9256q-2.6989-5.1523-4.6617-12.513-6.1338 5.3978-14.966 9.8141-8.8326 4.1709-20.609 4.1709zm47.35-108.4q-4.6617-0.98141-11.286-0.98141-11.286 0-20.609 4.907-9.3233 4.6617-15.948 12.758-6.6245 7.8512-10.305 18.156-3.4349 10.305-3.4349 21.346 0 5.6431 0.9814 10.55 1.2268 4.907 3.6803 8.5873t6.3791 5.8884q4.171 2.2081 10.059 2.2081 7.8512 0 13.74-3.1895 6.1338-3.1896 11.531-8.8326 0.24535-5.1524 0.9814-10.795 0.98141-5.6431 2.2082-11.041l12.022-49.561z"
           id="path4269" />
      </g>
    </g>
  </g>
</svg>
